<svg
  xmlns="http://www.w3.org/2000/svg"
  viewBox="0 0 64 64"
  fill="none"
>
  <rect width="64" height="64" rx="16" fill="#13261D" />
  <path
    d="M17 24C17 22.8954 17.8954 22 19 22H22C23.1046 22 24 22.8954 24 24V40C24 41.1046 23.1046 42 22 42H19C17.8954 42 17 41.1046 17 40V24Z"
    fill="#F4F1E8"
  />
  <path
    d="M24 20C24 18.8954 24.8954 18 26 18H29C30.1046 18 31 18.8954 31 20V44C31 45.1046 30.1046 46 29 46H26C24.8954 46 24 45.1046 24 44V20Z"
    fill="#F4F1E8"
  />
  <path
    d="M31 29C31 27.8954 31.8954 27 33 27H41C42.1046 27 43 27.8954 43 29V35C43 36.1046 42.1046 37 41 37H33C31.8954 37 31 36.1046 31 35V29Z"
    fill="#E6A15A"
  />
  <path
    d="M43 20C43 18.8954 43.8954 18 45 18H48C49.1046 18 50 18.8954 50 20V44C50 45.1046 49.1046 46 48 46H45C43.8954 46 43 45.1046 43 44V20Z"
    fill="#F4F1E8"
  />
  <path
    d="M50 24C50 22.8954 50.8954 22 52 22H55C56.1046 22 57 22.8954 57 24V40C57 41.1046 56.1046 42 55 42H52C50.8954 42 50 41.1046 50 40V24Z"
    fill="#F4F1E8"
  />
</svg>
